<mxfile modified="2021-12-05T08:31:52.323Z" host="app.diagrams.net" agent="5.0 (Windows NT 10.0; Win64; x64) AppleWebKit/537.36 (KHTML, like Gecko) Chrome/96.0.4664.45 Safari/537.36" etag="gGiCdU0YM7rgZQ5BYqYf" version="15.9.1" type="github">
  <diagram id="hw-b7QnuWXzrcuchFDwp" name="Page-1">
    <mxGraphModel dx="2249" dy="1923" grid="1" gridSize="10" guides="1" tooltips="1" connect="1" arrows="1" fold="1" page="1" pageScale="1" pageWidth="827" pageHeight="1169" math="0" shadow="0">
      <root>
        <mxCell id="0" />
        <mxCell id="1" parent="0" />
        <mxCell id="sfhrzqRfL-zKUJOUxF8y-1" value="" style="rounded=0;whiteSpace=wrap;html=1;dashed=1;strokeWidth=2;fillColor=none;" parent="1" vertex="1">
          <mxGeometry x="-770" y="-1110" width="700" height="810" as="geometry" />
        </mxCell>
        <mxCell id="sfhrzqRfL-zKUJOUxF8y-45" value="" style="rounded=0;whiteSpace=wrap;html=1;fillColor=#FFF2CC;" parent="1" vertex="1">
          <mxGeometry x="-758" y="-733" width="378" height="115" as="geometry" />
        </mxCell>
        <mxCell id="sfhrzqRfL-zKUJOUxF8y-44" value="" style="rounded=0;whiteSpace=wrap;html=1;fillColor=#FFCD28;" parent="1" vertex="1">
          <mxGeometry x="-755" y="-860" width="400" height="110" as="geometry" />
        </mxCell>
        <mxCell id="sfhrzqRfL-zKUJOUxF8y-43" value="" style="rounded=0;whiteSpace=wrap;html=1;fillColor=#FFCD28;" parent="1" vertex="1">
          <mxGeometry x="-755" y="-1000" width="360" height="130" as="geometry" />
        </mxCell>
        <mxCell id="sfhrzqRfL-zKUJOUxF8y-14" value="&lt;b&gt;首先，为了统一描述的标准，我们把要做的所有事务简称“产品”，&lt;br&gt;把完成具体事务的过程称为“产品研发过程&lt;/b&gt;&lt;b&gt;”&lt;/b&gt;&lt;b&gt;（有时候也叫“&lt;/b&gt;&lt;b&gt;一个项目&lt;/b&gt;&lt;b&gt;”）。&lt;br&gt;&lt;br&gt;各阶段主要活动及输出：&lt;/b&gt;&lt;br&gt;&lt;br&gt;1、对接需求——&amp;gt;会计项目转会计准则（或者审计项目转审计流程）&lt;br&gt;2、可行性评估——&amp;gt; 疑难问题收集&lt;br&gt;3、立项——&amp;gt;&amp;nbsp;&lt;b&gt;PRDV0.1版本&lt;/b&gt;&lt;br&gt;4、组建核心PDT团队——&amp;gt;人力成本预算表&lt;br&gt;5、产品&amp;amp;项目宣讲——&amp;gt; 团队成员对项目理解的手稿&lt;br&gt;6、初步时间规划及评审——&amp;gt; 项目经理提交一级计划及问题集&lt;br&gt;7、需求评审及确定&lt;br&gt;8、功能模块评审并确定——&amp;gt; 评审报告提交并存储&lt;br&gt;&lt;br&gt;&lt;br&gt;1、时间规划并更新——&amp;gt; 一级计划补充文档&lt;br&gt;2、PDT团队组建&lt;br&gt;3、版本包规划及评审——&amp;gt; 评审报告提交并存储&lt;br&gt;4、技术方案设计及评审——&amp;gt; 评审稿提交并存储&lt;br&gt;5、详细开发任务分配和计划、评审——&amp;gt; Project时间管理表（二级计划表）&lt;br&gt;6、专家验证用例设计评审并确定——&amp;gt; 评审报告(验证用例的提交&amp;amp;存储&lt;br&gt;&lt;br&gt;&lt;br&gt;&lt;br&gt;1、人资后补预备——&amp;gt;报备书&lt;br&gt;2、会计准则框架的搭建（通常由团队项目经理完成）&lt;br&gt;3、流程设计、评审&lt;br&gt;4、属性定义——&amp;gt;重要的节点性标注文档&lt;br&gt;5、案例编写、碎片文档收纳(案例整合)——&amp;gt;提交及修改说明&lt;br&gt;6、团队向企业交付对接——&amp;gt;向Openplant提交可复用案例&lt;br&gt;7、内部版本证明报告（专家组评审）。&lt;br&gt;&lt;br&gt;&lt;br&gt;1、专家组评审报告验证——&amp;gt;提交并修复&lt;br&gt;2、缺陷修复验证——&amp;gt;提交修复说明及补充&lt;br&gt;&lt;br&gt;&lt;br&gt;&lt;br&gt;&lt;br&gt;&lt;br&gt;&lt;br&gt;3、验收报告（或重点批注）&lt;br&gt;4、内外验收（法务、会计等）&lt;br&gt;&lt;br&gt;&lt;br&gt;&lt;br&gt;1、人员溢出回归各&lt;b&gt;自资源线（组织结构中的各功能性部门）&lt;/b&gt;&lt;br&gt;&amp;nbsp; &amp;nbsp; &amp;nbsp; 案例积累——&amp;gt;向OpenPlant提交中间件或案例模块&lt;br&gt;2、发布评审并决策&lt;br&gt;3、产品交付结案&lt;br&gt;4、项目总结&lt;br&gt;5、反馈收集并建立需求池——&amp;gt;产品&amp;amp;项目经理向需求池提交对应的文档" style="text;html=1;resizable=0;points=[];autosize=1;align=left;verticalAlign=top;spacingTop=-4;" parent="1" vertex="1">
          <mxGeometry x="-755" y="-1071" width="420" height="730" as="geometry" />
        </mxCell>
        <mxCell id="mtA4ZGPTwMAcJMfqiiAh-38" value="" style="rounded=0;whiteSpace=wrap;html=1;dashed=1;strokeWidth=2;fillColor=none;" parent="1" vertex="1">
          <mxGeometry x="-745" y="-180" width="700" height="810" as="geometry" />
        </mxCell>
        <mxCell id="mtA4ZGPTwMAcJMfqiiAh-9" style="edgeStyle=orthogonalEdgeStyle;rounded=0;orthogonalLoop=1;jettySize=auto;html=1;exitX=0.5;exitY=1;exitDx=0;exitDy=0;entryX=0.5;entryY=0;entryDx=0;entryDy=0;" parent="1" source="mtA4ZGPTwMAcJMfqiiAh-1" target="mtA4ZGPTwMAcJMfqiiAh-2" edge="1">
          <mxGeometry relative="1" as="geometry" />
        </mxCell>
        <mxCell id="mtA4ZGPTwMAcJMfqiiAh-1" value="开始" style="rounded=1;whiteSpace=wrap;html=1;arcSize=50;gradientColor=#b3b3b3;fillColor=#f5f5f5;strokeColor=#666666;" parent="1" vertex="1">
          <mxGeometry x="-315" y="-130" width="100" height="40" as="geometry" />
        </mxCell>
        <mxCell id="mtA4ZGPTwMAcJMfqiiAh-10" style="edgeStyle=orthogonalEdgeStyle;rounded=0;orthogonalLoop=1;jettySize=auto;html=1;exitX=0.5;exitY=1;exitDx=0;exitDy=0;entryX=0.5;entryY=0;entryDx=0;entryDy=0;" parent="1" source="mtA4ZGPTwMAcJMfqiiAh-2" target="mtA4ZGPTwMAcJMfqiiAh-3" edge="1">
          <mxGeometry relative="1" as="geometry" />
        </mxCell>
        <mxCell id="mtA4ZGPTwMAcJMfqiiAh-2" value="概念阶段" style="rounded=0;whiteSpace=wrap;html=1;gradientColor=#ffa500;fillColor=#ffcd28;strokeColor=#d79b00;" parent="1" vertex="1">
          <mxGeometry x="-325" width="120" height="50" as="geometry" />
        </mxCell>
        <mxCell id="mtA4ZGPTwMAcJMfqiiAh-11" style="edgeStyle=orthogonalEdgeStyle;rounded=0;orthogonalLoop=1;jettySize=auto;html=1;exitX=0.5;exitY=1;exitDx=0;exitDy=0;entryX=0.5;entryY=0;entryDx=0;entryDy=0;" parent="1" source="mtA4ZGPTwMAcJMfqiiAh-3" target="mtA4ZGPTwMAcJMfqiiAh-6" edge="1">
          <mxGeometry relative="1" as="geometry" />
        </mxCell>
        <mxCell id="mtA4ZGPTwMAcJMfqiiAh-3" value="计划阶段&lt;span style=&quot;font-family: &amp;#34;helvetica&amp;#34; , &amp;#34;arial&amp;#34; , sans-serif ; font-size: 0px ; white-space: nowrap&quot;&gt;%3CmxGraphModel%3E%3Croot%3E%3CmxCell%20id%3D%220%22%2F%3E%3CmxCell%20id%3D%221%22%20parent%3D%220%22%2F%3E%3CmxCell%20id%3D%222%22%20value%3D%22%E6%A6%82%E5%BF%B5%E9%98%B6%E6%AE%B5%22%20style%3D%22rounded%3D0%3BwhiteSpace%3Dwrap%3Bhtml%3D1%3B%22%20vertex%3D%221%22%20parent%3D%221%22%3E%3CmxGeometry%20x%3D%22400%22%20y%3D%22170%22%20width%3D%22120%22%20height%3D%2250%22%20as%3D%22geometry%22%2F%3E%3C%2FmxCell%3E%3C%2Froot%3E%3C%2FmxGraphModel%3E&lt;/span&gt;" style="rounded=0;whiteSpace=wrap;html=1;gradientColor=#ffa500;fillColor=#ffcd28;strokeColor=#d79b00;" parent="1" vertex="1">
          <mxGeometry x="-325" y="100" width="120" height="50" as="geometry" />
        </mxCell>
        <mxCell id="mtA4ZGPTwMAcJMfqiiAh-44" style="edgeStyle=orthogonalEdgeStyle;rounded=0;orthogonalLoop=1;jettySize=auto;html=1;exitX=1;exitY=0.5;exitDx=0;exitDy=0;entryX=0.5;entryY=1;entryDx=0;entryDy=0;" parent="1" source="mtA4ZGPTwMAcJMfqiiAh-4" target="mtA4ZGPTwMAcJMfqiiAh-37" edge="1">
          <mxGeometry relative="1" as="geometry" />
        </mxCell>
        <mxCell id="mtA4ZGPTwMAcJMfqiiAh-4" value="发布阶段" style="rounded=0;whiteSpace=wrap;html=1;gradientColor=#7ea6e0;fillColor=#dae8fc;strokeColor=#6c8ebf;" parent="1" vertex="1">
          <mxGeometry x="-325" y="490" width="120" height="50" as="geometry" />
        </mxCell>
        <mxCell id="mtA4ZGPTwMAcJMfqiiAh-13" style="edgeStyle=orthogonalEdgeStyle;rounded=0;orthogonalLoop=1;jettySize=auto;html=1;exitX=0.5;exitY=1;exitDx=0;exitDy=0;entryX=0.5;entryY=0;entryDx=0;entryDy=0;" parent="1" source="mtA4ZGPTwMAcJMfqiiAh-5" target="mtA4ZGPTwMAcJMfqiiAh-4" edge="1">
          <mxGeometry relative="1" as="geometry" />
        </mxCell>
        <mxCell id="mtA4ZGPTwMAcJMfqiiAh-5" value="验证阶段" style="rounded=0;whiteSpace=wrap;html=1;gradientColor=#ffd966;fillColor=#fff2cc;strokeColor=#d6b656;" parent="1" vertex="1">
          <mxGeometry x="-325" y="367.5" width="120" height="50" as="geometry" />
        </mxCell>
        <mxCell id="mtA4ZGPTwMAcJMfqiiAh-12" style="edgeStyle=orthogonalEdgeStyle;rounded=0;orthogonalLoop=1;jettySize=auto;html=1;exitX=0.5;exitY=1;exitDx=0;exitDy=0;" parent="1" source="mtA4ZGPTwMAcJMfqiiAh-6" target="mtA4ZGPTwMAcJMfqiiAh-5" edge="1">
          <mxGeometry relative="1" as="geometry" />
        </mxCell>
        <mxCell id="mtA4ZGPTwMAcJMfqiiAh-6" value="开发阶段" style="rounded=0;whiteSpace=wrap;html=1;gradientColor=#ffd966;fillColor=#fff2cc;strokeColor=#d6b656;" parent="1" vertex="1">
          <mxGeometry x="-325" y="210" width="120" height="50" as="geometry" />
        </mxCell>
        <mxCell id="mtA4ZGPTwMAcJMfqiiAh-14" value="&lt;b&gt;各阶段主要活动及输出：&lt;/b&gt;&lt;br&gt;&lt;br&gt;1、对接需求——&amp;gt;MRD转PRD&lt;br&gt;2、可行性评估——&amp;gt; 疑难问题收集&lt;br&gt;3、立项——&amp;gt;&amp;nbsp;&lt;b&gt;PRDV0.1版本&lt;/b&gt;&lt;br&gt;4、组件核心PDT团队——&amp;gt;人力成本预算表&lt;br&gt;5、产品&amp;amp;项目宣讲——&amp;gt; 团队成员对项目理解的手稿&lt;br&gt;6、初步时间规划及评审——&amp;gt; 项目经理提交一级计划及问题集&lt;br&gt;7、需求评审及确定&lt;br&gt;8、功能模块评审并确定——&amp;gt; 评审报告提交并存储&lt;br&gt;&lt;br&gt;&lt;br&gt;1、时规划更新——&amp;gt; 一级计划补充文档&lt;br&gt;2、PDT团队组建&lt;br&gt;3、版本包规划及评审——&amp;gt; 评审报告提交并存储&lt;br&gt;4、技术方案设计及评审——&amp;gt; 评审稿提交并存储&lt;br&gt;5、详细开发任务分配和计划、评审——&amp;gt; Project时间管理表（二级计划表）&lt;br&gt;6、测试用例设计评审并确定——&amp;gt; 评审报告(测试用例的提交&amp;amp;存储&lt;br&gt;&lt;br&gt;&lt;br&gt;1、人资后补预备——&amp;gt;报备书&lt;br&gt;2、框架搭建&lt;br&gt;3、UI界面设计、评审&lt;br&gt;4、接口定义——&amp;gt;API文档&lt;br&gt;5、代码编写、接口测试（联调）——&amp;gt;JIRA提交bug及修改说明&lt;br&gt;&amp;nbsp; &amp;nbsp; &amp;nbsp;单元测试——&amp;gt;JIRA提交bug及修改说明&lt;br&gt;6、测试用例编写——&amp;gt;向Openplant提交可复用用例&lt;br&gt;7、内部版本测试&lt;br&gt;&lt;br&gt;&lt;br&gt;1、集成及系统测试——&amp;gt;JIRA提交bug&lt;br&gt;2、缺陷修复——&amp;gt;JIRA提交修复说明&lt;br&gt;&lt;br&gt;&lt;br&gt;&lt;br&gt;&lt;br&gt;&lt;br&gt;&lt;br&gt;3、验收测试&lt;br&gt;4、内外验收&lt;br&gt;&lt;br&gt;&lt;br&gt;&lt;br&gt;1、人员溢出回归各自资源线&lt;br&gt;&amp;nbsp; &amp;nbsp; &amp;nbsp; 基础模块积累——&amp;gt;向OpenPlant提交中间件或模块&lt;br&gt;2、发布评审并决策&lt;br&gt;3、产品&amp;amp;项目上线试运营&lt;br&gt;4、项目总结&lt;br&gt;5、运营反馈收集并建立需求池——&amp;gt;产品&amp;amp;项目经理提交需求池文档" style="text;html=1;resizable=0;points=[];autosize=1;align=left;verticalAlign=top;spacingTop=-4;" parent="1" vertex="1">
          <mxGeometry x="-735" y="-90" width="420" height="690" as="geometry" />
        </mxCell>
        <mxCell id="mtA4ZGPTwMAcJMfqiiAh-21" value="验证阶段" style="rounded=0;whiteSpace=wrap;html=1;gradientColor=#ffd966;fillColor=#fff2cc;strokeColor=#d6b656;" parent="1" vertex="1">
          <mxGeometry x="-475" y="440" width="80" height="28" as="geometry" />
        </mxCell>
        <mxCell id="mtA4ZGPTwMAcJMfqiiAh-26" style="edgeStyle=orthogonalEdgeStyle;rounded=0;orthogonalLoop=1;jettySize=auto;html=1;exitX=0.5;exitY=1;exitDx=0;exitDy=0;entryX=0.5;entryY=0;entryDx=0;entryDy=0;" parent="1" source="mtA4ZGPTwMAcJMfqiiAh-23" target="mtA4ZGPTwMAcJMfqiiAh-21" edge="1">
          <mxGeometry relative="1" as="geometry" />
        </mxCell>
        <mxCell id="mtA4ZGPTwMAcJMfqiiAh-23" value="阶段测试" style="rounded=0;whiteSpace=wrap;html=1;gradientColor=#ffd966;fillColor=#fff2cc;strokeColor=#d6b656;" parent="1" vertex="1">
          <mxGeometry x="-475" y="325.5" width="80" height="28" as="geometry" />
        </mxCell>
        <mxCell id="mtA4ZGPTwMAcJMfqiiAh-24" value="" style="edgeStyle=elbowEdgeStyle;elbow=horizontal;endArrow=classic;html=1;exitX=0;exitY=0.5;exitDx=0;exitDy=0;entryX=1;entryY=0.5;entryDx=0;entryDy=0;" parent="1" source="mtA4ZGPTwMAcJMfqiiAh-5" target="mtA4ZGPTwMAcJMfqiiAh-23" edge="1">
          <mxGeometry width="50" height="50" relative="1" as="geometry">
            <mxPoint x="-405" y="380" as="sourcePoint" />
            <mxPoint x="-355" y="330" as="targetPoint" />
            <Array as="points">
              <mxPoint x="-365" y="360" />
            </Array>
          </mxGeometry>
        </mxCell>
        <mxCell id="mtA4ZGPTwMAcJMfqiiAh-25" value="" style="edgeStyle=elbowEdgeStyle;elbow=horizontal;endArrow=classic;html=1;exitX=0;exitY=0.5;exitDx=0;exitDy=0;entryX=1;entryY=0.5;entryDx=0;entryDy=0;" parent="1" source="mtA4ZGPTwMAcJMfqiiAh-5" target="mtA4ZGPTwMAcJMfqiiAh-21" edge="1">
          <mxGeometry width="50" height="50" relative="1" as="geometry">
            <mxPoint x="-315" y="403" as="sourcePoint" />
            <mxPoint x="-405" y="354" as="targetPoint" />
            <Array as="points">
              <mxPoint x="-365" y="410" />
            </Array>
          </mxGeometry>
        </mxCell>
        <mxCell id="mtA4ZGPTwMAcJMfqiiAh-34" style="edgeStyle=orthogonalEdgeStyle;rounded=0;orthogonalLoop=1;jettySize=auto;html=1;exitX=1;exitY=0.5;exitDx=0;exitDy=0;" parent="1" source="mtA4ZGPTwMAcJMfqiiAh-32" edge="1">
          <mxGeometry relative="1" as="geometry">
            <mxPoint x="-435" y="401" as="targetPoint" />
          </mxGeometry>
        </mxCell>
        <mxCell id="mtA4ZGPTwMAcJMfqiiAh-32" value="&lt;span style=&quot;text-align: left ; white-space: nowrap&quot;&gt;准入条件：&lt;/span&gt;&lt;br style=&quot;text-align: left ; white-space: nowrap&quot;&gt;&lt;span style=&quot;text-align: left ; white-space: nowrap&quot;&gt;最后一轮测试通过&lt;/span&gt;&lt;br style=&quot;text-align: left ; white-space: nowrap&quot;&gt;&lt;span style=&quot;text-align: left ; white-space: nowrap&quot;&gt;版本基线化&lt;/span&gt;" style="rounded=0;whiteSpace=wrap;html=1;gradientColor=#97d077;fillColor=#d5e8d4;strokeColor=#82b366;" parent="1" vertex="1">
          <mxGeometry x="-625" y="376" width="130" height="50" as="geometry" />
        </mxCell>
        <mxCell id="mtA4ZGPTwMAcJMfqiiAh-36" style="edgeStyle=orthogonalEdgeStyle;rounded=0;orthogonalLoop=1;jettySize=auto;html=1;exitX=0;exitY=0.5;exitDx=0;exitDy=0;" parent="1" source="mtA4ZGPTwMAcJMfqiiAh-35" edge="1">
          <mxGeometry relative="1" as="geometry">
            <mxPoint x="-265" y="315" as="targetPoint" />
          </mxGeometry>
        </mxCell>
        <mxCell id="mtA4ZGPTwMAcJMfqiiAh-35" value="&lt;span style=&quot;text-align: left ; white-space: nowrap&quot;&gt;准入条件：&lt;/span&gt;&lt;br style=&quot;text-align: left ; white-space: nowrap&quot;&gt;&lt;div style=&quot;text-align: left&quot;&gt;&lt;span style=&quot;white-space: nowrap&quot;&gt;冒烟测试结果报告&lt;/span&gt;&lt;/div&gt;&lt;div style=&quot;text-align: left&quot;&gt;&lt;span style=&quot;white-space: nowrap&quot;&gt;&amp;nbsp; &amp;nbsp; &amp;nbsp;评审通过&lt;/span&gt;&lt;/div&gt;" style="rounded=0;whiteSpace=wrap;html=1;gradientColor=#97d077;fillColor=#d5e8d4;strokeColor=#82b366;" parent="1" vertex="1">
          <mxGeometry x="-195" y="290" width="130" height="50" as="geometry" />
        </mxCell>
        <mxCell id="mtA4ZGPTwMAcJMfqiiAh-45" style="edgeStyle=orthogonalEdgeStyle;rounded=0;orthogonalLoop=1;jettySize=auto;html=1;exitX=0.5;exitY=0;exitDx=0;exitDy=0;entryX=0.5;entryY=1;entryDx=0;entryDy=0;" parent="1" source="mtA4ZGPTwMAcJMfqiiAh-37" target="mtA4ZGPTwMAcJMfqiiAh-39" edge="1">
          <mxGeometry relative="1" as="geometry" />
        </mxCell>
        <mxCell id="mtA4ZGPTwMAcJMfqiiAh-52" style="edgeStyle=orthogonalEdgeStyle;rounded=0;orthogonalLoop=1;jettySize=auto;html=1;exitX=0.75;exitY=1;exitDx=0;exitDy=0;entryX=0;entryY=0.5;entryDx=0;entryDy=0;" parent="1" source="mtA4ZGPTwMAcJMfqiiAh-37" target="mtA4ZGPTwMAcJMfqiiAh-43" edge="1">
          <mxGeometry relative="1" as="geometry" />
        </mxCell>
        <mxCell id="mtA4ZGPTwMAcJMfqiiAh-37" value="产品运营" style="rounded=0;whiteSpace=wrap;html=1;gradientColor=#7ea6e0;fillColor=#dae8fc;strokeColor=#6c8ebf;" parent="1" vertex="1">
          <mxGeometry x="22" y="415" width="120" height="50" as="geometry" />
        </mxCell>
        <mxCell id="mtA4ZGPTwMAcJMfqiiAh-46" style="edgeStyle=orthogonalEdgeStyle;rounded=0;orthogonalLoop=1;jettySize=auto;html=1;exitX=0.5;exitY=0;exitDx=0;exitDy=0;entryX=0.5;entryY=1;entryDx=0;entryDy=0;" parent="1" source="mtA4ZGPTwMAcJMfqiiAh-39" target="mtA4ZGPTwMAcJMfqiiAh-41" edge="1">
          <mxGeometry relative="1" as="geometry" />
        </mxCell>
        <mxCell id="mtA4ZGPTwMAcJMfqiiAh-39" value="需求反馈" style="rounded=0;whiteSpace=wrap;html=1;gradientColor=#7ea6e0;fillColor=#dae8fc;strokeColor=#6c8ebf;" parent="1" vertex="1">
          <mxGeometry x="22" y="265" width="120" height="50" as="geometry" />
        </mxCell>
        <mxCell id="mtA4ZGPTwMAcJMfqiiAh-48" style="edgeStyle=orthogonalEdgeStyle;rounded=0;orthogonalLoop=1;jettySize=auto;html=1;exitX=0.5;exitY=0;exitDx=0;exitDy=0;entryX=0.5;entryY=0;entryDx=0;entryDy=0;" parent="1" source="mtA4ZGPTwMAcJMfqiiAh-40" target="mtA4ZGPTwMAcJMfqiiAh-2" edge="1">
          <mxGeometry relative="1" as="geometry" />
        </mxCell>
        <mxCell id="mtA4ZGPTwMAcJMfqiiAh-53" value="Yes" style="text;html=1;resizable=0;points=[];align=center;verticalAlign=middle;labelBackgroundColor=#ffffff;" parent="mtA4ZGPTwMAcJMfqiiAh-48" vertex="1" connectable="0">
          <mxGeometry x="-0.5846" relative="1" as="geometry">
            <mxPoint as="offset" />
          </mxGeometry>
        </mxCell>
        <mxCell id="mtA4ZGPTwMAcJMfqiiAh-49" style="edgeStyle=orthogonalEdgeStyle;rounded=0;orthogonalLoop=1;jettySize=auto;html=1;exitX=1;exitY=0.5;exitDx=0;exitDy=0;" parent="1" source="mtA4ZGPTwMAcJMfqiiAh-40" target="mtA4ZGPTwMAcJMfqiiAh-42" edge="1">
          <mxGeometry relative="1" as="geometry" />
        </mxCell>
        <mxCell id="mtA4ZGPTwMAcJMfqiiAh-54" value="No" style="text;html=1;resizable=0;points=[];align=center;verticalAlign=middle;labelBackgroundColor=#ffffff;" parent="mtA4ZGPTwMAcJMfqiiAh-49" vertex="1" connectable="0">
          <mxGeometry x="-0.1368" relative="1" as="geometry">
            <mxPoint as="offset" />
          </mxGeometry>
        </mxCell>
        <mxCell id="mtA4ZGPTwMAcJMfqiiAh-40" value="是否需要进入完成的&lt;br&gt;开发流程" style="rhombus;whiteSpace=wrap;html=1;gradientColor=#d5739d;fillColor=#e6d0de;strokeColor=#996185;" parent="1" vertex="1">
          <mxGeometry x="7" y="-20" width="150" height="105" as="geometry" />
        </mxCell>
        <mxCell id="mtA4ZGPTwMAcJMfqiiAh-47" style="edgeStyle=orthogonalEdgeStyle;rounded=0;orthogonalLoop=1;jettySize=auto;html=1;exitX=0.5;exitY=0;exitDx=0;exitDy=0;entryX=0.5;entryY=1;entryDx=0;entryDy=0;" parent="1" source="mtA4ZGPTwMAcJMfqiiAh-41" target="mtA4ZGPTwMAcJMfqiiAh-40" edge="1">
          <mxGeometry relative="1" as="geometry" />
        </mxCell>
        <mxCell id="mtA4ZGPTwMAcJMfqiiAh-41" value="需求池建立" style="rounded=0;whiteSpace=wrap;html=1;gradientColor=#7ea6e0;fillColor=#dae8fc;strokeColor=#6c8ebf;" parent="1" vertex="1">
          <mxGeometry x="22" y="137.5" width="120" height="50" as="geometry" />
        </mxCell>
        <mxCell id="mtA4ZGPTwMAcJMfqiiAh-50" style="edgeStyle=orthogonalEdgeStyle;rounded=0;orthogonalLoop=1;jettySize=auto;html=1;exitX=0.25;exitY=1;exitDx=0;exitDy=0;entryX=1;entryY=0.5;entryDx=0;entryDy=0;" parent="1" source="mtA4ZGPTwMAcJMfqiiAh-42" target="mtA4ZGPTwMAcJMfqiiAh-37" edge="1">
          <mxGeometry relative="1" as="geometry" />
        </mxCell>
        <mxCell id="mtA4ZGPTwMAcJMfqiiAh-51" style="edgeStyle=orthogonalEdgeStyle;rounded=0;orthogonalLoop=1;jettySize=auto;html=1;exitX=0.5;exitY=1;exitDx=0;exitDy=0;" parent="1" source="mtA4ZGPTwMAcJMfqiiAh-42" target="mtA4ZGPTwMAcJMfqiiAh-43" edge="1">
          <mxGeometry relative="1" as="geometry" />
        </mxCell>
        <mxCell id="mtA4ZGPTwMAcJMfqiiAh-42" value="需求管理流程" style="shape=process;whiteSpace=wrap;html=1;backgroundOutline=1;gradientColor=#ffa500;fillColor=#ffcd28;strokeColor=#d79b00;" parent="1" vertex="1">
          <mxGeometry x="205" y="145" width="150" height="120" as="geometry" />
        </mxCell>
        <mxCell id="mtA4ZGPTwMAcJMfqiiAh-43" value="结束" style="rounded=1;whiteSpace=wrap;html=1;arcSize=50;gradientColor=#b3b3b3;fillColor=#f5f5f5;strokeColor=#666666;" parent="1" vertex="1">
          <mxGeometry x="230" y="480" width="100" height="40" as="geometry" />
        </mxCell>
        <mxCell id="mtA4ZGPTwMAcJMfqiiAh-55" value="判断条件：&lt;br&gt;需求池内容达到版本更新，&lt;br&gt;则判断为yes，否则为no" style="text;html=1;resizable=0;points=[];autosize=1;align=left;verticalAlign=top;spacingTop=-4;" parent="1" vertex="1">
          <mxGeometry x="22" y="-110" width="160" height="40" as="geometry" />
        </mxCell>
        <mxCell id="mtA4ZGPTwMAcJMfqiiAh-56" value="&lt;font style=&quot;font-size: 18px&quot;&gt;&lt;b&gt;敏捷式集成开发流程&lt;/b&gt;&lt;/font&gt;" style="text;html=1;resizable=0;points=[];autosize=1;align=left;verticalAlign=top;spacingTop=-4;" parent="1" vertex="1">
          <mxGeometry x="-545" y="-170" width="180" height="20" as="geometry" />
        </mxCell>
        <mxCell id="sfhrzqRfL-zKUJOUxF8y-2" style="edgeStyle=orthogonalEdgeStyle;rounded=0;orthogonalLoop=1;jettySize=auto;html=1;exitX=0.5;exitY=1;exitDx=0;exitDy=0;entryX=0.5;entryY=0;entryDx=0;entryDy=0;" parent="1" source="sfhrzqRfL-zKUJOUxF8y-3" target="sfhrzqRfL-zKUJOUxF8y-5" edge="1">
          <mxGeometry relative="1" as="geometry" />
        </mxCell>
        <mxCell id="sfhrzqRfL-zKUJOUxF8y-3" value="开始" style="rounded=1;whiteSpace=wrap;html=1;arcSize=50;gradientColor=#b3b3b3;fillColor=#f5f5f5;strokeColor=#666666;" parent="1" vertex="1">
          <mxGeometry x="-340" y="-1060" width="100" height="40" as="geometry" />
        </mxCell>
        <mxCell id="sfhrzqRfL-zKUJOUxF8y-4" style="edgeStyle=orthogonalEdgeStyle;rounded=0;orthogonalLoop=1;jettySize=auto;html=1;exitX=0.5;exitY=1;exitDx=0;exitDy=0;entryX=0.5;entryY=0;entryDx=0;entryDy=0;" parent="1" source="sfhrzqRfL-zKUJOUxF8y-5" target="sfhrzqRfL-zKUJOUxF8y-7" edge="1">
          <mxGeometry relative="1" as="geometry" />
        </mxCell>
        <mxCell id="sfhrzqRfL-zKUJOUxF8y-5" value="概念阶段" style="rounded=0;whiteSpace=wrap;html=1;gradientColor=#ffa500;fillColor=#ffcd28;strokeColor=#d79b00;" parent="1" vertex="1">
          <mxGeometry x="-350" y="-930" width="120" height="50" as="geometry" />
        </mxCell>
        <mxCell id="sfhrzqRfL-zKUJOUxF8y-6" style="edgeStyle=orthogonalEdgeStyle;rounded=0;orthogonalLoop=1;jettySize=auto;html=1;exitX=0.5;exitY=1;exitDx=0;exitDy=0;entryX=0.5;entryY=0;entryDx=0;entryDy=0;" parent="1" source="sfhrzqRfL-zKUJOUxF8y-7" target="sfhrzqRfL-zKUJOUxF8y-13" edge="1">
          <mxGeometry relative="1" as="geometry" />
        </mxCell>
        <mxCell id="sfhrzqRfL-zKUJOUxF8y-7" value="计划阶段&lt;span style=&quot;font-family: &amp;#34;helvetica&amp;#34; , &amp;#34;arial&amp;#34; , sans-serif ; font-size: 0px ; white-space: nowrap&quot;&gt;%3CmxGraphModel%3E%3Croot%3E%3CmxCell%20id%3D%220%22%2F%3E%3CmxCell%20id%3D%221%22%20parent%3D%220%22%2F%3E%3CmxCell%20id%3D%222%22%20value%3D%22%E6%A6%82%E5%BF%B5%E9%98%B6%E6%AE%B5%22%20style%3D%22rounded%3D0%3BwhiteSpace%3Dwrap%3Bhtml%3D1%3B%22%20vertex%3D%221%22%20parent%3D%221%22%3E%3CmxGeometry%20x%3D%22400%22%20y%3D%22170%22%20width%3D%22120%22%20height%3D%2250%22%20as%3D%22geometry%22%2F%3E%3C%2FmxCell%3E%3C%2Froot%3E%3C%2FmxGraphModel%3E&lt;/span&gt;" style="rounded=0;whiteSpace=wrap;html=1;gradientColor=#ffa500;fillColor=#ffcd28;strokeColor=#d79b00;" parent="1" vertex="1">
          <mxGeometry x="-350" y="-830" width="120" height="50" as="geometry" />
        </mxCell>
        <mxCell id="sfhrzqRfL-zKUJOUxF8y-8" style="edgeStyle=orthogonalEdgeStyle;rounded=0;orthogonalLoop=1;jettySize=auto;html=1;exitX=1;exitY=0.5;exitDx=0;exitDy=0;entryX=0.5;entryY=1;entryDx=0;entryDy=0;" parent="1" source="sfhrzqRfL-zKUJOUxF8y-9" target="sfhrzqRfL-zKUJOUxF8y-26" edge="1">
          <mxGeometry relative="1" as="geometry" />
        </mxCell>
        <mxCell id="sfhrzqRfL-zKUJOUxF8y-9" value="交付" style="rounded=0;whiteSpace=wrap;html=1;gradientColor=#7ea6e0;fillColor=#dae8fc;strokeColor=#6c8ebf;" parent="1" vertex="1">
          <mxGeometry x="-350" y="-440" width="120" height="50" as="geometry" />
        </mxCell>
        <mxCell id="sfhrzqRfL-zKUJOUxF8y-10" style="edgeStyle=orthogonalEdgeStyle;rounded=0;orthogonalLoop=1;jettySize=auto;html=1;exitX=0.5;exitY=1;exitDx=0;exitDy=0;entryX=0.5;entryY=0;entryDx=0;entryDy=0;" parent="1" source="sfhrzqRfL-zKUJOUxF8y-11" target="sfhrzqRfL-zKUJOUxF8y-9" edge="1">
          <mxGeometry relative="1" as="geometry" />
        </mxCell>
        <mxCell id="sfhrzqRfL-zKUJOUxF8y-11" value="验证阶段" style="rounded=0;whiteSpace=wrap;html=1;gradientColor=#ffd966;fillColor=#fff2cc;strokeColor=#d6b656;" parent="1" vertex="1">
          <mxGeometry x="-350" y="-562.5" width="120" height="50" as="geometry" />
        </mxCell>
        <mxCell id="sfhrzqRfL-zKUJOUxF8y-12" style="edgeStyle=orthogonalEdgeStyle;rounded=0;orthogonalLoop=1;jettySize=auto;html=1;exitX=0.5;exitY=1;exitDx=0;exitDy=0;" parent="1" source="sfhrzqRfL-zKUJOUxF8y-13" target="sfhrzqRfL-zKUJOUxF8y-11" edge="1">
          <mxGeometry relative="1" as="geometry" />
        </mxCell>
        <mxCell id="sfhrzqRfL-zKUJOUxF8y-13" value="开发阶段" style="rounded=0;whiteSpace=wrap;html=1;fillColor=#FFF2CC;strokeColor=#d6b656;gradientColor=#FFF2CC;" parent="1" vertex="1">
          <mxGeometry x="-350" y="-720" width="120" height="50" as="geometry" />
        </mxCell>
        <mxCell id="sfhrzqRfL-zKUJOUxF8y-15" value="验证阶段" style="rounded=0;whiteSpace=wrap;html=1;gradientColor=#ffd966;fillColor=#fff2cc;strokeColor=#d6b656;" parent="1" vertex="1">
          <mxGeometry x="-500" y="-490" width="80" height="28" as="geometry" />
        </mxCell>
        <mxCell id="sfhrzqRfL-zKUJOUxF8y-16" style="edgeStyle=orthogonalEdgeStyle;rounded=0;orthogonalLoop=1;jettySize=auto;html=1;exitX=0.5;exitY=1;exitDx=0;exitDy=0;entryX=0.5;entryY=0;entryDx=0;entryDy=0;" parent="1" source="sfhrzqRfL-zKUJOUxF8y-17" target="sfhrzqRfL-zKUJOUxF8y-15" edge="1">
          <mxGeometry relative="1" as="geometry" />
        </mxCell>
        <mxCell id="sfhrzqRfL-zKUJOUxF8y-17" value="阶段测试" style="rounded=0;whiteSpace=wrap;html=1;gradientColor=#ffd966;fillColor=#fff2cc;strokeColor=#d6b656;" parent="1" vertex="1">
          <mxGeometry x="-500" y="-604.5" width="80" height="28" as="geometry" />
        </mxCell>
        <mxCell id="sfhrzqRfL-zKUJOUxF8y-18" value="" style="edgeStyle=elbowEdgeStyle;elbow=horizontal;endArrow=classic;html=1;exitX=0;exitY=0.5;exitDx=0;exitDy=0;entryX=1;entryY=0.5;entryDx=0;entryDy=0;" parent="1" source="sfhrzqRfL-zKUJOUxF8y-11" target="sfhrzqRfL-zKUJOUxF8y-17" edge="1">
          <mxGeometry width="50" height="50" relative="1" as="geometry">
            <mxPoint x="-430" y="-550" as="sourcePoint" />
            <mxPoint x="-380" y="-600" as="targetPoint" />
            <Array as="points">
              <mxPoint x="-390" y="-570" />
            </Array>
          </mxGeometry>
        </mxCell>
        <mxCell id="sfhrzqRfL-zKUJOUxF8y-19" value="" style="edgeStyle=elbowEdgeStyle;elbow=horizontal;endArrow=classic;html=1;exitX=0;exitY=0.5;exitDx=0;exitDy=0;entryX=1;entryY=0.5;entryDx=0;entryDy=0;" parent="1" source="sfhrzqRfL-zKUJOUxF8y-11" target="sfhrzqRfL-zKUJOUxF8y-15" edge="1">
          <mxGeometry width="50" height="50" relative="1" as="geometry">
            <mxPoint x="-340" y="-527" as="sourcePoint" />
            <mxPoint x="-430" y="-576" as="targetPoint" />
            <Array as="points">
              <mxPoint x="-390" y="-520" />
            </Array>
          </mxGeometry>
        </mxCell>
        <mxCell id="sfhrzqRfL-zKUJOUxF8y-20" style="edgeStyle=orthogonalEdgeStyle;rounded=0;orthogonalLoop=1;jettySize=auto;html=1;exitX=1;exitY=0.5;exitDx=0;exitDy=0;" parent="1" source="sfhrzqRfL-zKUJOUxF8y-21" edge="1">
          <mxGeometry relative="1" as="geometry">
            <mxPoint x="-460" y="-529" as="targetPoint" />
          </mxGeometry>
        </mxCell>
        <mxCell id="sfhrzqRfL-zKUJOUxF8y-21" value="&lt;span style=&quot;text-align: left ; white-space: nowrap&quot;&gt;准入条件：&lt;/span&gt;&lt;br style=&quot;text-align: left ; white-space: nowrap&quot;&gt;&lt;span style=&quot;text-align: left ; white-space: nowrap&quot;&gt;最后一轮评审通过&lt;/span&gt;&lt;br style=&quot;text-align: left ; white-space: nowrap&quot;&gt;&lt;span style=&quot;text-align: left ; white-space: nowrap&quot;&gt;版本基线化&lt;/span&gt;" style="rounded=0;whiteSpace=wrap;html=1;gradientColor=#97d077;fillColor=#d5e8d4;strokeColor=#82b366;" parent="1" vertex="1">
          <mxGeometry x="-650" y="-554" width="130" height="50" as="geometry" />
        </mxCell>
        <mxCell id="sfhrzqRfL-zKUJOUxF8y-22" style="edgeStyle=orthogonalEdgeStyle;rounded=0;orthogonalLoop=1;jettySize=auto;html=1;exitX=0;exitY=0.5;exitDx=0;exitDy=0;" parent="1" source="sfhrzqRfL-zKUJOUxF8y-23" edge="1">
          <mxGeometry relative="1" as="geometry">
            <mxPoint x="-290" y="-615" as="targetPoint" />
          </mxGeometry>
        </mxCell>
        <mxCell id="sfhrzqRfL-zKUJOUxF8y-23" value="&lt;span style=&quot;text-align: left ; white-space: nowrap&quot;&gt;准入条件：&lt;/span&gt;&lt;br style=&quot;text-align: left ; white-space: nowrap&quot;&gt;&lt;div style=&quot;text-align: left&quot;&gt;&lt;span style=&quot;white-space: nowrap&quot;&gt;内部版本证明报告&lt;/span&gt;&lt;/div&gt;" style="rounded=0;whiteSpace=wrap;html=1;gradientColor=#97d077;fillColor=#d5e8d4;strokeColor=#82b366;" parent="1" vertex="1">
          <mxGeometry x="-220" y="-640" width="130" height="50" as="geometry" />
        </mxCell>
        <mxCell id="sfhrzqRfL-zKUJOUxF8y-24" style="edgeStyle=orthogonalEdgeStyle;rounded=0;orthogonalLoop=1;jettySize=auto;html=1;exitX=0.5;exitY=0;exitDx=0;exitDy=0;entryX=0.5;entryY=1;entryDx=0;entryDy=0;" parent="1" source="sfhrzqRfL-zKUJOUxF8y-26" target="sfhrzqRfL-zKUJOUxF8y-28" edge="1">
          <mxGeometry relative="1" as="geometry" />
        </mxCell>
        <mxCell id="sfhrzqRfL-zKUJOUxF8y-25" style="edgeStyle=orthogonalEdgeStyle;rounded=0;orthogonalLoop=1;jettySize=auto;html=1;exitX=0.75;exitY=1;exitDx=0;exitDy=0;entryX=0;entryY=0.5;entryDx=0;entryDy=0;" parent="1" source="sfhrzqRfL-zKUJOUxF8y-26" target="sfhrzqRfL-zKUJOUxF8y-39" edge="1">
          <mxGeometry relative="1" as="geometry" />
        </mxCell>
        <mxCell id="sfhrzqRfL-zKUJOUxF8y-26" value="产品交付后&lt;br&gt;的反馈信息" style="rounded=0;whiteSpace=wrap;html=1;gradientColor=#7ea6e0;fillColor=#dae8fc;strokeColor=#6c8ebf;" parent="1" vertex="1">
          <mxGeometry x="-3" y="-515" width="120" height="50" as="geometry" />
        </mxCell>
        <mxCell id="sfhrzqRfL-zKUJOUxF8y-27" style="edgeStyle=orthogonalEdgeStyle;rounded=0;orthogonalLoop=1;jettySize=auto;html=1;exitX=0.5;exitY=0;exitDx=0;exitDy=0;entryX=0.5;entryY=1;entryDx=0;entryDy=0;" parent="1" source="sfhrzqRfL-zKUJOUxF8y-28" target="sfhrzqRfL-zKUJOUxF8y-35" edge="1">
          <mxGeometry relative="1" as="geometry" />
        </mxCell>
        <mxCell id="sfhrzqRfL-zKUJOUxF8y-28" value="需求反馈" style="rounded=0;whiteSpace=wrap;html=1;gradientColor=#7ea6e0;fillColor=#dae8fc;strokeColor=#6c8ebf;" parent="1" vertex="1">
          <mxGeometry x="-3" y="-665" width="120" height="50" as="geometry" />
        </mxCell>
        <mxCell id="sfhrzqRfL-zKUJOUxF8y-29" style="edgeStyle=orthogonalEdgeStyle;rounded=0;orthogonalLoop=1;jettySize=auto;html=1;exitX=0.5;exitY=0;exitDx=0;exitDy=0;entryX=0.5;entryY=0;entryDx=0;entryDy=0;" parent="1" source="sfhrzqRfL-zKUJOUxF8y-33" target="sfhrzqRfL-zKUJOUxF8y-5" edge="1">
          <mxGeometry relative="1" as="geometry" />
        </mxCell>
        <mxCell id="sfhrzqRfL-zKUJOUxF8y-30" value="Yes" style="text;html=1;resizable=0;points=[];align=center;verticalAlign=middle;labelBackgroundColor=#ffffff;" parent="sfhrzqRfL-zKUJOUxF8y-29" vertex="1" connectable="0">
          <mxGeometry x="-0.5846" relative="1" as="geometry">
            <mxPoint as="offset" />
          </mxGeometry>
        </mxCell>
        <mxCell id="sfhrzqRfL-zKUJOUxF8y-31" style="edgeStyle=orthogonalEdgeStyle;rounded=0;orthogonalLoop=1;jettySize=auto;html=1;exitX=1;exitY=0.5;exitDx=0;exitDy=0;" parent="1" source="sfhrzqRfL-zKUJOUxF8y-33" target="sfhrzqRfL-zKUJOUxF8y-38" edge="1">
          <mxGeometry relative="1" as="geometry" />
        </mxCell>
        <mxCell id="sfhrzqRfL-zKUJOUxF8y-32" value="No" style="text;html=1;resizable=0;points=[];align=center;verticalAlign=middle;labelBackgroundColor=#ffffff;" parent="sfhrzqRfL-zKUJOUxF8y-31" vertex="1" connectable="0">
          <mxGeometry x="-0.1368" relative="1" as="geometry">
            <mxPoint as="offset" />
          </mxGeometry>
        </mxCell>
        <mxCell id="sfhrzqRfL-zKUJOUxF8y-33" value="是否需要进入确定的&lt;br&gt;开发流程" style="rhombus;whiteSpace=wrap;html=1;gradientColor=#d5739d;fillColor=#e6d0de;strokeColor=#996185;" parent="1" vertex="1">
          <mxGeometry x="-18" y="-950" width="150" height="105" as="geometry" />
        </mxCell>
        <mxCell id="sfhrzqRfL-zKUJOUxF8y-34" style="edgeStyle=orthogonalEdgeStyle;rounded=0;orthogonalLoop=1;jettySize=auto;html=1;exitX=0.5;exitY=0;exitDx=0;exitDy=0;entryX=0.5;entryY=1;entryDx=0;entryDy=0;" parent="1" source="sfhrzqRfL-zKUJOUxF8y-35" target="sfhrzqRfL-zKUJOUxF8y-33" edge="1">
          <mxGeometry relative="1" as="geometry" />
        </mxCell>
        <mxCell id="sfhrzqRfL-zKUJOUxF8y-35" value="需求池建立" style="rounded=0;whiteSpace=wrap;html=1;gradientColor=#7ea6e0;fillColor=#dae8fc;strokeColor=#6c8ebf;" parent="1" vertex="1">
          <mxGeometry x="-3" y="-792.5" width="120" height="50" as="geometry" />
        </mxCell>
        <mxCell id="sfhrzqRfL-zKUJOUxF8y-36" style="edgeStyle=orthogonalEdgeStyle;rounded=0;orthogonalLoop=1;jettySize=auto;html=1;exitX=0.25;exitY=1;exitDx=0;exitDy=0;entryX=1;entryY=0.5;entryDx=0;entryDy=0;" parent="1" source="sfhrzqRfL-zKUJOUxF8y-38" target="sfhrzqRfL-zKUJOUxF8y-26" edge="1">
          <mxGeometry relative="1" as="geometry" />
        </mxCell>
        <mxCell id="sfhrzqRfL-zKUJOUxF8y-37" style="edgeStyle=orthogonalEdgeStyle;rounded=0;orthogonalLoop=1;jettySize=auto;html=1;exitX=0.5;exitY=1;exitDx=0;exitDy=0;" parent="1" source="sfhrzqRfL-zKUJOUxF8y-38" target="sfhrzqRfL-zKUJOUxF8y-39" edge="1">
          <mxGeometry relative="1" as="geometry" />
        </mxCell>
        <mxCell id="sfhrzqRfL-zKUJOUxF8y-38" value="需求管理流程" style="shape=process;whiteSpace=wrap;html=1;backgroundOutline=1;gradientColor=#ffa500;fillColor=#ffcd28;strokeColor=#d79b00;" parent="1" vertex="1">
          <mxGeometry x="180" y="-785" width="150" height="120" as="geometry" />
        </mxCell>
        <mxCell id="sfhrzqRfL-zKUJOUxF8y-39" value="结束" style="rounded=1;whiteSpace=wrap;html=1;arcSize=50;gradientColor=#b3b3b3;fillColor=#f5f5f5;strokeColor=#666666;" parent="1" vertex="1">
          <mxGeometry x="205" y="-450" width="100" height="40" as="geometry" />
        </mxCell>
        <mxCell id="sfhrzqRfL-zKUJOUxF8y-40" value="判断条件：&lt;br&gt;需求池内容达到版本更新，&lt;br&gt;则判断为yes，否则为no" style="text;html=1;resizable=0;points=[];autosize=1;align=left;verticalAlign=top;spacingTop=-4;" parent="1" vertex="1">
          <mxGeometry x="7" y="-1020" width="160" height="40" as="geometry" />
        </mxCell>
        <mxCell id="sfhrzqRfL-zKUJOUxF8y-41" value="&lt;font style=&quot;font-size: 18px&quot;&gt;&lt;b&gt;敏捷式协同办公流程标准&lt;/b&gt;&lt;/font&gt;" style="text;html=1;resizable=0;points=[];autosize=1;align=left;verticalAlign=top;spacingTop=-4;" parent="1" vertex="1">
          <mxGeometry x="-570" y="-1100" width="210" height="20" as="geometry" />
        </mxCell>
        <mxCell id="sfhrzqRfL-zKUJOUxF8y-42" value="&lt;div style=&quot;text-align: left&quot;&gt;&lt;span&gt;名词解释：&lt;/span&gt;&lt;/div&gt;&lt;div style=&quot;text-align: left&quot;&gt;&lt;span&gt;PRD（&lt;/span&gt;&lt;span style=&quot;color: rgb(51 , 51 , 51) ; font-family: &amp;#34;arial&amp;#34; , &amp;#34;microsoft yahei&amp;#34; , &amp;#34;\\5fae软雅黑&amp;#34; , &amp;#34;\\5b8b体&amp;#34; , &amp;#34;malgun gothic&amp;#34; , &amp;#34;meiryo&amp;#34; , sans-serif ; font-size: 14px ; line-height: 21px ; background-color: rgb(255 , 255 , 255)&quot;&gt;Product Requirement Document—产品需求文档)&lt;/span&gt;&lt;/div&gt;&lt;div style=&quot;text-align: left&quot;&gt;&lt;span style=&quot;background-color: rgb(255 , 255 , 255) ; color: rgb(51 , 51 , 51) ; font-family: &amp;#34;arial&amp;#34; , &amp;#34;microsoft yahei&amp;#34; , &amp;#34;\\5fae软雅黑&amp;#34; , &amp;#34;\\5b8b体&amp;#34; , &amp;#34;malgun gothic&amp;#34; , &amp;#34;meiryo&amp;#34; , sans-serif ; font-size: 14px&quot;&gt;PDT（product&amp;nbsp;developer&amp;nbsp;team—产品开发团队）&lt;br&gt;Openplant（企业内部开放平台）&lt;/span&gt;&lt;/div&gt;" style="text;html=1;align=center;verticalAlign=middle;resizable=0;points=[];autosize=1;strokeColor=none;fillColor=none;" parent="1" vertex="1">
          <mxGeometry x="-55" y="-380" width="360" height="70" as="geometry" />
        </mxCell>
        <mxCell id="lzSyuqlsFKo8IC3isV0i-1" value="" style="rounded=0;whiteSpace=wrap;html=1;shadow=1;glass=0;comic=0;gradientColor=#97d077;fillColor=#d5e8d4;strokeColor=#82b366;" parent="1" vertex="1">
          <mxGeometry x="537.5" y="-1030" width="800" height="120" as="geometry" />
        </mxCell>
        <mxCell id="lzSyuqlsFKo8IC3isV0i-2" value="&lt;font color=&quot;#ffffff&quot;&gt;&lt;span style=&quot;font-size: 18px&quot;&gt;&lt;b&gt;组织结构与业务逻辑的梳理&lt;/b&gt;&lt;/span&gt;&lt;/font&gt;" style="rounded=1;whiteSpace=wrap;html=1;shadow=1;glass=0;comic=0;gradientColor=#ea6b66;gradientDirection=north;fillColor=#f8cecc;strokeColor=#b85450;" parent="1" vertex="1">
          <mxGeometry x="537.5" y="-905" width="660" height="41" as="geometry" />
        </mxCell>
        <mxCell id="lzSyuqlsFKo8IC3isV0i-3" value="&lt;font style=&quot;font-size: 18px&quot; color=&quot;#6666ff&quot;&gt;&lt;b&gt;展&lt;br&gt;示&lt;br&gt;层&lt;/b&gt;&lt;/font&gt;" style="text;html=1;resizable=0;points=[];autosize=1;align=left;verticalAlign=top;spacingTop=-4;" parent="1" vertex="1">
          <mxGeometry x="567.5" y="-1000" width="30" height="50" as="geometry" />
        </mxCell>
        <mxCell id="lzSyuqlsFKo8IC3isV0i-4" value="&lt;b&gt;&lt;font style=&quot;font-size: 15px&quot;&gt;WEB端（HTML）&lt;/font&gt;&lt;/b&gt;" style="rounded=0;whiteSpace=wrap;html=1;shadow=1;glass=0;comic=0;gradientColor=#97d077;fillColor=#d5e8d4;strokeColor=#82b366;gradientDirection=west;" parent="1" vertex="1">
          <mxGeometry x="623.5" y="-1030" width="394" height="120" as="geometry" />
        </mxCell>
        <mxCell id="lzSyuqlsFKo8IC3isV0i-5" value="&lt;b&gt;&lt;font style=&quot;font-size: 15px&quot;&gt;移动端（H5）&lt;/font&gt;&lt;/b&gt;" style="rounded=0;whiteSpace=wrap;html=1;shadow=1;glass=0;comic=0;gradientColor=#97d077;fillColor=#d5e8d4;strokeColor=#82b366;gradientDirection=east;" parent="1" vertex="1">
          <mxGeometry x="1015.5" y="-1030" width="320" height="120" as="geometry" />
        </mxCell>
        <mxCell id="lzSyuqlsFKo8IC3isV0i-6" value="" style="rounded=0;whiteSpace=wrap;html=1;shadow=1;glass=0;comic=0;gradientColor=#994C00;gradientDirection=south;" parent="1" vertex="1">
          <mxGeometry x="537.5" y="-860" width="660" height="260" as="geometry" />
        </mxCell>
        <mxCell id="lzSyuqlsFKo8IC3isV0i-10" value="&lt;font color=&quot;#ffffff&quot; style=&quot;font-size: 15px&quot;&gt;&lt;b&gt;权限服务&lt;/b&gt;&lt;/font&gt;" style="shape=cube;whiteSpace=wrap;html=1;boundedLbl=1;backgroundOutline=1;darkOpacity=0.05;darkOpacity2=0.1;rounded=0;shadow=0;glass=0;comic=0;gradientColor=#ffa500;size=9;fillColor=#ffcd28;strokeColor=#d79b00;" parent="1" vertex="1">
          <mxGeometry x="1052.5" y="-840" width="130" height="70" as="geometry" />
        </mxCell>
        <mxCell id="lzSyuqlsFKo8IC3isV0i-11" value="&lt;b&gt;&lt;font color=&quot;#ffffff&quot; style=&quot;font-size: 15px&quot;&gt;BI接口服务&lt;/font&gt;&lt;/b&gt;" style="shape=cube;whiteSpace=wrap;html=1;boundedLbl=1;backgroundOutline=1;darkOpacity=0.05;darkOpacity2=0.1;rounded=0;shadow=0;glass=0;comic=0;gradientColor=#ffa500;size=9;fillColor=#ffcd28;strokeColor=#d79b00;" parent="1" vertex="1">
          <mxGeometry x="623.5" y="-765" width="130" height="70" as="geometry" />
        </mxCell>
        <mxCell id="lzSyuqlsFKo8IC3isV0i-12" value="&lt;b&gt;&lt;font color=&quot;#ffffff&quot; style=&quot;font-size: 15px&quot;&gt;参数处理服务&lt;/font&gt;&lt;/b&gt;" style="shape=cube;whiteSpace=wrap;html=1;boundedLbl=1;backgroundOutline=1;darkOpacity=0.05;darkOpacity2=0.1;rounded=0;shadow=0;glass=0;comic=0;gradientColor=#ffa500;size=9;fillColor=#ffcd28;strokeColor=#d79b00;" parent="1" vertex="1">
          <mxGeometry x="765.5" y="-765" width="130" height="70" as="geometry" />
        </mxCell>
        <mxCell id="lzSyuqlsFKo8IC3isV0i-13" value="&lt;b&gt;&lt;font style=&quot;font-size: 15px&quot; color=&quot;#ffffff&quot;&gt;消息服务&lt;/font&gt;&lt;/b&gt;" style="shape=cube;whiteSpace=wrap;html=1;boundedLbl=1;backgroundOutline=1;darkOpacity=0.05;darkOpacity2=0.1;rounded=0;shadow=0;glass=0;comic=0;gradientColor=#ffa500;size=9;fillColor=#ffcd28;strokeColor=#d79b00;" parent="1" vertex="1">
          <mxGeometry x="907.5" y="-765" width="130" height="70" as="geometry" />
        </mxCell>
        <mxCell id="lzSyuqlsFKo8IC3isV0i-14" value="&lt;b&gt;&lt;font style=&quot;font-size: 15px&quot; color=&quot;#ffffff&quot;&gt;设备管理服务&lt;/font&gt;&lt;/b&gt;" style="shape=cube;whiteSpace=wrap;html=1;boundedLbl=1;backgroundOutline=1;darkOpacity=0.05;darkOpacity2=0.1;rounded=0;shadow=0;glass=0;comic=0;gradientColor=#ffa500;size=9;fillColor=#ffcd28;strokeColor=#d79b00;" parent="1" vertex="1">
          <mxGeometry x="623.5" y="-690" width="130" height="70" as="geometry" />
        </mxCell>
        <mxCell id="lzSyuqlsFKo8IC3isV0i-15" value="&lt;b&gt;&lt;font style=&quot;font-size: 15px&quot; color=&quot;#ffffff&quot;&gt;客户管理服务&lt;/font&gt;&lt;/b&gt;" style="shape=cube;whiteSpace=wrap;html=1;boundedLbl=1;backgroundOutline=1;darkOpacity=0.05;darkOpacity2=0.1;rounded=0;shadow=0;glass=0;comic=0;gradientColor=#ffa500;size=9;fillColor=#ffcd28;strokeColor=#d79b00;" parent="1" vertex="1">
          <mxGeometry x="1052.5" y="-765" width="130" height="70" as="geometry" />
        </mxCell>
        <mxCell id="lzSyuqlsFKo8IC3isV0i-16" value="&lt;font color=&quot;#6666ff&quot;&gt;&lt;span style=&quot;font-size: 18px&quot;&gt;&lt;b&gt;组&lt;br&gt;织&lt;br&gt;结&lt;br&gt;构&lt;/b&gt;&lt;/span&gt;&lt;/font&gt;" style="text;html=1;resizable=0;points=[];autosize=1;align=left;verticalAlign=top;spacingTop=-4;" parent="1" vertex="1">
          <mxGeometry x="567.5" y="-780" width="30" height="70" as="geometry" />
        </mxCell>
        <mxCell id="lzSyuqlsFKo8IC3isV0i-17" value="" style="group" parent="1" vertex="1" connectable="0">
          <mxGeometry x="537.5" y="-594" width="660" height="120" as="geometry" />
        </mxCell>
        <mxCell id="lzSyuqlsFKo8IC3isV0i-18" value="" style="rounded=0;whiteSpace=wrap;html=1;shadow=1;glass=0;comic=0;gradientColor=#3399FF;gradientDirection=south;" parent="lzSyuqlsFKo8IC3isV0i-17" vertex="1">
          <mxGeometry width="660" height="120" as="geometry" />
        </mxCell>
        <mxCell id="lzSyuqlsFKo8IC3isV0i-19" value="&lt;font style=&quot;font-size: 15px&quot;&gt;&lt;b&gt;EMQTT消息服务&lt;/b&gt;&lt;/font&gt;" style="shape=dataStorage;whiteSpace=wrap;html=1;rounded=1;shadow=0;glass=0;comic=0;gradientColor=#ffa500;fillColor=#ffcd28;strokeColor=#d79b00;" parent="lzSyuqlsFKo8IC3isV0i-17" vertex="1">
          <mxGeometry x="86" y="20" width="220" height="80" as="geometry" />
        </mxCell>
        <mxCell id="lzSyuqlsFKo8IC3isV0i-20" value="&lt;b&gt;&lt;font style=&quot;font-size: 15px&quot;&gt;kafka消息中心&lt;/font&gt;&lt;/b&gt;" style="shape=dataStorage;whiteSpace=wrap;html=1;rounded=1;shadow=0;glass=0;comic=0;gradientColor=#ffa500;direction=west;fillColor=#ffcd28;strokeColor=#d79b00;" parent="lzSyuqlsFKo8IC3isV0i-17" vertex="1">
          <mxGeometry x="370" y="20" width="240" height="80" as="geometry" />
        </mxCell>
        <mxCell id="lzSyuqlsFKo8IC3isV0i-21" value="&lt;font color=&quot;#6666ff&quot;&gt;&lt;span style=&quot;font-size: 18px&quot;&gt;&lt;b&gt;业&lt;br&gt;务&lt;br&gt;逻&lt;br&gt;辑&lt;/b&gt;&lt;/span&gt;&lt;/font&gt;" style="text;html=1;resizable=0;points=[];autosize=1;align=left;verticalAlign=top;spacingTop=-4;" parent="lzSyuqlsFKo8IC3isV0i-17" vertex="1">
          <mxGeometry x="30" y="20" width="30" height="70" as="geometry" />
        </mxCell>
        <mxCell id="lzSyuqlsFKo8IC3isV0i-22" value="" style="group" parent="1" vertex="1" connectable="0">
          <mxGeometry x="538.5" y="-468" width="815" height="150" as="geometry" />
        </mxCell>
        <mxCell id="lzSyuqlsFKo8IC3isV0i-23" value="" style="html=1;shadow=0;dashed=0;align=center;verticalAlign=middle;shape=mxgraph.arrows2.arrow;dy=0;dx=10;notch=10;rounded=1;glass=0;comic=0;fillColor=#3399FF;gradientColor=#6666FF;" parent="lzSyuqlsFKo8IC3isV0i-22" vertex="1">
          <mxGeometry x="130.78751857355127" y="94" width="121.09955423476968" height="30" as="geometry" />
        </mxCell>
        <mxCell id="lzSyuqlsFKo8IC3isV0i-24" value="" style="rounded=0;whiteSpace=wrap;html=1;shadow=1;glass=0;comic=0;gradientColor=#3399FF;gradientDirection=south;" parent="lzSyuqlsFKo8IC3isV0i-22" vertex="1">
          <mxGeometry y="1" width="620" height="140" as="geometry" />
        </mxCell>
        <mxCell id="lzSyuqlsFKo8IC3isV0i-25" value="" style="verticalLabelPosition=middle;verticalAlign=middle;html=1;shape=mxgraph.infographic.cylinder;fillColor=#F2931E;strokeColor=none;shadow=0;align=left;labelPosition=right;spacingLeft=10;fontStyle=1;fontColor=#F2931E;rounded=1;glass=0;comic=0;" parent="lzSyuqlsFKo8IC3isV0i-22" vertex="1">
          <mxGeometry x="130.78751857355127" y="31" width="121.09955423476968" height="97" as="geometry" />
        </mxCell>
        <mxCell id="lzSyuqlsFKo8IC3isV0i-26" value="" style="verticalLabelPosition=middle;verticalAlign=middle;html=1;shape=mxgraph.infographic.cylinder;fillColor=#3399FF;strokeColor=none;shadow=0;align=left;labelPosition=right;spacingLeft=10;fontStyle=1;fontColor=#F2931E;rounded=1;glass=0;comic=0;" parent="lzSyuqlsFKo8IC3isV0i-22" vertex="1">
          <mxGeometry x="457.7563150074294" y="29.5" width="121.09955423476968" height="97" as="geometry" />
        </mxCell>
        <mxCell id="lzSyuqlsFKo8IC3isV0i-27" value="" style="verticalLabelPosition=middle;verticalAlign=middle;html=1;shape=mxgraph.infographic.cylinder;fillColor=#CC0000;strokeColor=none;shadow=0;align=left;labelPosition=right;spacingLeft=10;fontStyle=1;fontColor=#F2931E;rounded=1;glass=0;comic=0;" parent="lzSyuqlsFKo8IC3isV0i-22" vertex="1">
          <mxGeometry x="294.2719167904903" y="31" width="121.09955423476968" height="97" as="geometry" />
        </mxCell>
        <mxCell id="lzSyuqlsFKo8IC3isV0i-28" value="&lt;b&gt;缓存数据&lt;/b&gt;" style="text;html=1;resizable=0;points=[];autosize=1;align=left;verticalAlign=top;spacingTop=-4;" parent="lzSyuqlsFKo8IC3isV0i-22" vertex="1">
          <mxGeometry x="154.3744427934621" y="101" width="60" height="20" as="geometry" />
        </mxCell>
        <mxCell id="lzSyuqlsFKo8IC3isV0i-29" value="&lt;b&gt;热数据&lt;/b&gt;" style="text;html=1;resizable=0;points=[];autosize=1;align=left;verticalAlign=top;spacingTop=-4;" parent="lzSyuqlsFKo8IC3isV0i-22" vertex="1">
          <mxGeometry x="330.6017830609212" y="101" width="50" height="20" as="geometry" />
        </mxCell>
        <mxCell id="lzSyuqlsFKo8IC3isV0i-30" value="&lt;b&gt;冷数据（历史数据）&lt;/b&gt;" style="text;html=1;resizable=0;points=[];autosize=1;align=left;verticalAlign=top;spacingTop=-4;" parent="lzSyuqlsFKo8IC3isV0i-22" vertex="1">
          <mxGeometry x="469.5453194650817" y="101" width="120" height="20" as="geometry" />
        </mxCell>
        <mxCell id="lzSyuqlsFKo8IC3isV0i-31" value="" style="group" parent="lzSyuqlsFKo8IC3isV0i-22" vertex="1" connectable="0">
          <mxGeometry x="629.7176820208024" width="69.02674591381871" height="150" as="geometry" />
        </mxCell>
        <mxCell id="lzSyuqlsFKo8IC3isV0i-32" value="" style="verticalLabelPosition=middle;verticalAlign=middle;html=1;shape=mxgraph.infographic.cylinder;fillColor=#3399FF;strokeColor=none;shadow=0;align=left;labelPosition=right;spacingLeft=10;fontStyle=1;fontColor=#23445D;rounded=1;glass=0;comic=0;" parent="lzSyuqlsFKo8IC3isV0i-31" vertex="1">
          <mxGeometry y="71.88559322033899" width="61.59309635386901" height="74.36440677966101" as="geometry" />
        </mxCell>
        <mxCell id="lzSyuqlsFKo8IC3isV0i-33" value="" style="verticalLabelPosition=middle;verticalAlign=middle;html=1;shape=mxgraph.infographic.cylinder;fillColor=#AE4132;strokeColor=none;shadow=0;align=left;labelPosition=right;spacingLeft=10;fontStyle=1;fontColor=#AE4132;rounded=1;glass=0;comic=0;" parent="lzSyuqlsFKo8IC3isV0i-31" vertex="1">
          <mxGeometry y="22.309322033898304" width="61.59309635386901" height="54.53389830508474" as="geometry" />
        </mxCell>
        <mxCell id="lzSyuqlsFKo8IC3isV0i-34" value="" style="verticalLabelPosition=middle;verticalAlign=middle;html=1;shape=mxgraph.infographic.cylinder;fillColor=#F2931E;strokeColor=none;shadow=0;align=left;labelPosition=right;spacingLeft=10;fontStyle=1;fontColor=#F2931E;rounded=1;glass=0;comic=0;" parent="lzSyuqlsFKo8IC3isV0i-31" vertex="1">
          <mxGeometry width="61.59309635386901" height="27.26694915254237" as="geometry" />
        </mxCell>
        <mxCell id="lzSyuqlsFKo8IC3isV0i-35" value="&lt;b&gt;&lt;font style=&quot;font-size: 15px&quot; color=&quot;#ffffff&quot;&gt;ETL&lt;br&gt;&amp;nbsp;过&lt;br&gt;&amp;nbsp;滤&lt;/font&gt;&lt;/b&gt;" style="text;html=1;resizable=0;points=[];autosize=1;align=left;verticalAlign=top;spacingTop=-4;" parent="lzSyuqlsFKo8IC3isV0i-31" vertex="1">
          <mxGeometry x="15.929249057035088" y="45.75" width="40" height="50" as="geometry" />
        </mxCell>
        <mxCell id="lzSyuqlsFKo8IC3isV0i-36" value="&lt;font color=&quot;#6666ff&quot;&gt;&lt;span style=&quot;font-size: 18px&quot;&gt;&lt;b&gt;存&lt;br&gt;储&lt;br&gt;层&lt;/b&gt;&lt;/span&gt;&lt;/font&gt;" style="text;html=1;resizable=0;points=[];autosize=1;align=left;verticalAlign=top;spacingTop=-4;" parent="lzSyuqlsFKo8IC3isV0i-22" vertex="1">
          <mxGeometry x="30.27488855869242" y="51" width="30" height="50" as="geometry" />
        </mxCell>
        <mxCell id="lzSyuqlsFKo8IC3isV0i-37" value="" style="group;gradientDirection=north;" parent="lzSyuqlsFKo8IC3isV0i-22" vertex="1" connectable="0">
          <mxGeometry x="702.3774145616642" y="1" width="112.6225854383358" height="140" as="geometry" />
        </mxCell>
        <mxCell id="lzSyuqlsFKo8IC3isV0i-38" value="" style="rounded=0;whiteSpace=wrap;html=1;shadow=1;glass=0;comic=0;gradientColor=#3399FF;" parent="lzSyuqlsFKo8IC3isV0i-37" vertex="1">
          <mxGeometry width="96.87964338781575" height="140" as="geometry" />
        </mxCell>
        <mxCell id="lzSyuqlsFKo8IC3isV0i-39" value="" style="shadow=0;dashed=0;html=1;strokeColor=none;fillColor=#505050;labelPosition=center;verticalLabelPosition=bottom;verticalAlign=top;outlineConnect=0;align=center;shape=mxgraph.office.databases.database_partition_3;rounded=1;glass=0;comic=0;" parent="lzSyuqlsFKo8IC3isV0i-37" vertex="1">
          <mxGeometry x="4.843982169390787" y="17" width="72.65973254086181" height="63" as="geometry" />
        </mxCell>
        <mxCell id="lzSyuqlsFKo8IC3isV0i-40" value="&lt;b&gt;&lt;font style=&quot;font-size: 15px&quot; color=&quot;#ffffff&quot;&gt;数据仓库&lt;/font&gt;&lt;/b&gt;" style="text;html=1;resizable=0;points=[];autosize=1;align=left;verticalAlign=top;spacingTop=-4;" parent="lzSyuqlsFKo8IC3isV0i-37" vertex="1">
          <mxGeometry x="15.742942050520059" y="109.5" width="80" height="20" as="geometry" />
        </mxCell>
        <mxCell id="lzSyuqlsFKo8IC3isV0i-41" value="" style="html=1;shadow=0;dashed=0;align=center;verticalAlign=middle;shape=mxgraph.arrows2.arrow;dy=0.6;dx=22;notch=15;rounded=1;glass=0;comic=0;fillColor=#FFFFFF;gradientColor=#FFFF33;gradientDirection=west;" parent="lzSyuqlsFKo8IC3isV0i-22" vertex="1">
          <mxGeometry x="224.03417533432392" y="101" width="75.0817236255572" height="20" as="geometry" />
        </mxCell>
        <mxCell id="lzSyuqlsFKo8IC3isV0i-42" value="" style="html=1;shadow=0;dashed=0;align=center;verticalAlign=middle;shape=mxgraph.arrows2.arrow;dy=0.6;dx=22;notch=15;rounded=1;glass=0;comic=0;fillColor=#FFFFFF;gradientColor=#FFFF33;gradientDirection=west;" parent="lzSyuqlsFKo8IC3isV0i-22" vertex="1">
          <mxGeometry x="382.6745913818722" y="99" width="75.0817236255572" height="20" as="geometry" />
        </mxCell>
        <mxCell id="lzSyuqlsFKo8IC3isV0i-43" value="" style="rounded=0;whiteSpace=wrap;html=1;shadow=1;glass=0;comic=0;gradientColor=#97d077;fillColor=#d5e8d4;strokeColor=#82b366;" parent="1" vertex="1">
          <mxGeometry x="537.5" y="-318" width="800" height="120" as="geometry" />
        </mxCell>
        <mxCell id="lzSyuqlsFKo8IC3isV0i-44" value="&lt;b&gt;&lt;font style=&quot;font-size: 15px&quot;&gt;ONENET&lt;/font&gt;&lt;/b&gt;" style="shape=cube;whiteSpace=wrap;html=1;boundedLbl=1;backgroundOutline=1;darkOpacity=0.05;darkOpacity2=0.1;rounded=1;shadow=0;glass=0;comic=0;fillColor=#FFFFFF;gradientColor=#FFFF33;gradientDirection=west;" parent="1" vertex="1">
          <mxGeometry x="629.5" y="-301" width="295" height="80" as="geometry" />
        </mxCell>
        <mxCell id="lzSyuqlsFKo8IC3isV0i-45" value="&lt;b&gt;&lt;font style=&quot;font-size: 15px&quot;&gt;阿里云&lt;/font&gt;&lt;/b&gt;" style="shape=cube;whiteSpace=wrap;html=1;boundedLbl=1;backgroundOutline=1;darkOpacity=0.05;darkOpacity2=0.1;rounded=1;shadow=0;glass=0;comic=0;fillColor=#FFFFFF;gradientColor=#FFFF33;gradientDirection=east;" parent="1" vertex="1">
          <mxGeometry x="994.5" y="-301" width="294" height="80" as="geometry" />
        </mxCell>
        <mxCell id="lzSyuqlsFKo8IC3isV0i-46" value="&lt;font color=&quot;#6666ff&quot;&gt;&lt;span style=&quot;font-size: 18px&quot;&gt;&lt;b&gt;基&lt;br&gt;础&lt;br&gt;层&lt;/b&gt;&lt;/span&gt;&lt;/font&gt;" style="text;html=1;resizable=0;points=[];autosize=1;align=left;verticalAlign=top;spacingTop=-4;" parent="1" vertex="1">
          <mxGeometry x="562.5" y="-288" width="30" height="50" as="geometry" />
        </mxCell>
        <mxCell id="lzSyuqlsFKo8IC3isV0i-47" value="&lt;b style=&quot;text-align: center ; white-space: normal&quot;&gt;&lt;font style=&quot;font-size: 36px&quot;&gt;或&lt;/font&gt;&lt;/b&gt;" style="text;html=1;resizable=0;points=[];autosize=1;align=left;verticalAlign=top;spacingTop=-4;" parent="1" vertex="1">
          <mxGeometry x="937.5" y="-273" width="50" height="20" as="geometry" />
        </mxCell>
        <mxCell id="lzSyuqlsFKo8IC3isV0i-48" value="&lt;b&gt;&lt;font style=&quot;font-size: 18px&quot;&gt;传&lt;br&gt;&lt;br&gt;感&lt;br&gt;&lt;br&gt;器&lt;/font&gt;&lt;/b&gt;" style="shape=cube;whiteSpace=wrap;html=1;boundedLbl=1;backgroundOutline=1;darkOpacity=0.05;darkOpacity2=0.1;rounded=1;shadow=0;glass=0;comic=0;fillColor=#FFFFFF;gradientColor=#FFFF33;size=12;" parent="1" vertex="1">
          <mxGeometry x="1295" y="-891.5" width="50" height="403" as="geometry" />
        </mxCell>
        <mxCell id="lzSyuqlsFKo8IC3isV0i-49" value="" style="group" parent="1" vertex="1" connectable="0">
          <mxGeometry x="1200" y="-755" width="101" height="80" as="geometry" />
        </mxCell>
        <mxCell id="lzSyuqlsFKo8IC3isV0i-50" value="" style="shape=singleArrow;direction=west;whiteSpace=wrap;html=1;rounded=1;shadow=1;glass=0;comic=0;fillColor=#FFFFFF;gradientColor=#B5739D;arrowWidth=0.5111111111111111;arrowSize=0.3626373626373626;" parent="lzSyuqlsFKo8IC3isV0i-49" vertex="1">
          <mxGeometry x="-9" y="35" width="110" height="45" as="geometry" />
        </mxCell>
        <mxCell id="lzSyuqlsFKo8IC3isV0i-51" value="" style="outlineConnect=0;dashed=0;verticalLabelPosition=bottom;verticalAlign=top;align=center;html=1;shape=mxgraph.aws3.sensor;fillColor=#5294CF;gradientColor=none;rounded=1;shadow=0;glass=0;comic=0;" parent="1" vertex="1">
          <mxGeometry x="1206" y="-800" width="90" height="85" as="geometry" />
        </mxCell>
        <mxCell id="lzSyuqlsFKo8IC3isV0i-52" value="&lt;b&gt;&lt;font style=&quot;font-size: 18px&quot;&gt;管道压力探测系统架构图&lt;/font&gt;&lt;font style=&quot;font-size: 15px&quot;&gt;&amp;nbsp;&lt;br&gt;&lt;/font&gt;&amp;nbsp; &amp;nbsp; &amp;nbsp; &amp;nbsp; &amp;nbsp; &amp;nbsp; &amp;nbsp; &amp;nbsp; &amp;nbsp; &amp;nbsp; &amp;nbsp; &amp;nbsp; &amp;nbsp; &amp;nbsp; &amp;nbsp; &amp;nbsp; &amp;nbsp; &amp;nbsp; &amp;nbsp; &amp;nbsp; &amp;nbsp; &amp;nbsp; &amp;nbsp; &amp;nbsp; &amp;nbsp; &amp;nbsp; &amp;nbsp; &amp;nbsp; &amp;nbsp; &amp;nbsp; （Version0.1—&lt;/b&gt;&lt;b&gt;20190808&amp;nbsp;&lt;/b&gt;&lt;b&gt;by JTSU ）&lt;/b&gt;" style="text;html=1;resizable=0;points=[];autosize=1;align=left;verticalAlign=top;spacingTop=-4;" parent="1" vertex="1">
          <mxGeometry x="789.5" y="-190" width="420" height="30" as="geometry" />
        </mxCell>
        <mxCell id="lzSyuqlsFKo8IC3isV0i-53" value="时间点01" style="shape=step;perimeter=stepPerimeter;whiteSpace=wrap;html=1;fixedSize=1;size=10;direction=south;fillColor=#10739E;strokeColor=none;rounded=0;shadow=1;glass=0;comic=0;" parent="1" vertex="1">
          <mxGeometry x="867.5" y="-120" width="50" height="50" as="geometry" />
        </mxCell>
        <mxCell id="lzSyuqlsFKo8IC3isV0i-54" value="&lt;span style=&quot;white-space: normal&quot;&gt;时间点02&lt;/span&gt;" style="shape=step;perimeter=stepPerimeter;whiteSpace=wrap;html=1;fixedSize=1;size=10;direction=south;fillColor=#F2931E;strokeColor=none;rounded=0;shadow=1;glass=0;comic=0;" parent="1" vertex="1">
          <mxGeometry x="867.5" y="-75" width="50" height="50" as="geometry" />
        </mxCell>
        <mxCell id="lzSyuqlsFKo8IC3isV0i-55" value="&lt;span style=&quot;white-space: normal&quot;&gt;时间点&lt;br&gt;n&lt;br&gt;&lt;/span&gt;" style="shape=step;perimeter=stepPerimeter;whiteSpace=wrap;html=1;fixedSize=1;size=10;direction=south;fillColor=#AE4132;strokeColor=none;rounded=0;shadow=1;glass=0;comic=0;" parent="1" vertex="1">
          <mxGeometry x="867.5" y="19" width="50" height="50" as="geometry" />
        </mxCell>
        <mxCell id="lzSyuqlsFKo8IC3isV0i-56" value="&lt;font color=&quot;#10739e&quot;&gt;&lt;b&gt;压力值01&lt;/b&gt;&lt;/font&gt;" style="rounded=1;strokeColor=none;fillColor=#EEEEEE;align=center;arcSize=12;verticalAlign=top;whiteSpace=wrap;html=1;fontSize=12;shadow=1;glass=0;comic=0;" parent="1" vertex="1">
          <mxGeometry x="933" y="-112" width="98" height="30" as="geometry" />
        </mxCell>
        <mxCell id="lzSyuqlsFKo8IC3isV0i-57" value="" style="group;rounded=0;shadow=0;" parent="1" vertex="1" connectable="0">
          <mxGeometry x="550" y="-62.5" width="310" height="80" as="geometry" />
        </mxCell>
        <mxCell id="lzSyuqlsFKo8IC3isV0i-58" value="&lt;b&gt;压力采集&lt;/b&gt;" style="ellipse;whiteSpace=wrap;html=1;rounded=1;shadow=1;glass=0;comic=0;fillColor=#FFFFFF;gradientColor=#B5739D;" parent="lzSyuqlsFKo8IC3isV0i-57" vertex="1">
          <mxGeometry width="120" height="80" as="geometry" />
        </mxCell>
        <mxCell id="lzSyuqlsFKo8IC3isV0i-59" value="&lt;b&gt;&lt;font style=&quot;font-size: 15px&quot;&gt;压力分析&lt;/font&gt;&lt;/b&gt;" style="shape=step;perimeter=stepPerimeter;whiteSpace=wrap;html=1;fixedSize=1;rounded=0;shadow=1;glass=0;comic=0;fillColor=#FFFFFF;gradientColor=#B5739D;" parent="lzSyuqlsFKo8IC3isV0i-57" vertex="1">
          <mxGeometry x="120" width="190" height="80" as="geometry" />
        </mxCell>
        <mxCell id="lzSyuqlsFKo8IC3isV0i-60" value="压力差" style="rounded=1;whiteSpace=wrap;html=1;shadow=1;glass=0;comic=0;fillColor=#FFFF99;gradientColor=#ffa500;strokeColor=#d79b00;gradientDirection=south;" parent="lzSyuqlsFKo8IC3isV0i-57" vertex="1">
          <mxGeometry x="139" y="4" width="70" height="20" as="geometry" />
        </mxCell>
        <mxCell id="lzSyuqlsFKo8IC3isV0i-61" value="时间范围的参数临界值" style="rounded=1;whiteSpace=wrap;html=1;shadow=1;glass=0;comic=0;fillColor=#FFFF99;gradientColor=#ffa500;strokeColor=#d79b00;gradientDirection=south;" parent="lzSyuqlsFKo8IC3isV0i-57" vertex="1">
          <mxGeometry x="140" y="52" width="140" height="20" as="geometry" />
        </mxCell>
        <mxCell id="lzSyuqlsFKo8IC3isV0i-62" value="&lt;font color=&quot;#10739e&quot;&gt;&lt;b&gt;压力值02&lt;/b&gt;&lt;/font&gt;" style="rounded=1;strokeColor=none;fillColor=#EEEEEE;align=center;arcSize=12;verticalAlign=top;whiteSpace=wrap;html=1;fontSize=12;shadow=1;glass=0;comic=0;" parent="1" vertex="1">
          <mxGeometry x="933.5" y="-64" width="98" height="30" as="geometry" />
        </mxCell>
        <mxCell id="lzSyuqlsFKo8IC3isV0i-63" value="&lt;font color=&quot;#10739e&quot;&gt;&lt;b&gt;压力值 n&lt;/b&gt;&lt;/font&gt;" style="rounded=1;strokeColor=none;fillColor=#EEEEEE;align=center;arcSize=12;verticalAlign=top;whiteSpace=wrap;html=1;fontSize=12;shadow=1;glass=0;comic=0;" parent="1" vertex="1">
          <mxGeometry x="933.5" y="34" width="98" height="30" as="geometry" />
        </mxCell>
        <mxCell id="lzSyuqlsFKo8IC3isV0i-64" value="&lt;b&gt;&lt;font style=&quot;font-size: 18px&quot;&gt;管道压力探测系统逻辑时序图&lt;/font&gt;&lt;font style=&quot;font-size: 15px&quot;&gt;&amp;nbsp;&lt;br&gt;&lt;/font&gt;&amp;nbsp; &amp;nbsp; &amp;nbsp; &amp;nbsp; &amp;nbsp; &amp;nbsp; &amp;nbsp; &amp;nbsp; &amp;nbsp; &amp;nbsp; &amp;nbsp; &amp;nbsp; &amp;nbsp; &amp;nbsp; &amp;nbsp; &amp;nbsp; &amp;nbsp; &amp;nbsp; &amp;nbsp; &amp;nbsp; &amp;nbsp; &amp;nbsp; &amp;nbsp; &amp;nbsp; &amp;nbsp; &amp;nbsp; &amp;nbsp; &amp;nbsp; &amp;nbsp; &amp;nbsp; （Version0.1—&lt;/b&gt;&lt;b&gt;20190808&amp;nbsp;&lt;/b&gt;&lt;b&gt;by JTSU ）&lt;/b&gt;" style="text;html=1;resizable=0;points=[];autosize=1;align=left;verticalAlign=top;spacingTop=-4;" parent="1" vertex="1">
          <mxGeometry x="595.5" y="122.5" width="420" height="30" as="geometry" />
        </mxCell>
        <mxCell id="lzSyuqlsFKo8IC3isV0i-65" value="" style="verticalLabelPosition=bottom;verticalAlign=top;html=1;strokeWidth=2;shape=mxgraph.arrows2.arrow;dy=0.45;dx=48;notch=0;rounded=1;shadow=1;glass=0;comic=0;fillColor=#FFFF99;gradientColor=#B5739D;gradientDirection=west;" parent="1" vertex="1">
          <mxGeometry x="561.5" y="72.5" width="680" height="31" as="geometry" />
        </mxCell>
        <mxCell id="lzSyuqlsFKo8IC3isV0i-66" value="&lt;span style=&quot;white-space: normal&quot;&gt;。&lt;br&gt;。&lt;br&gt;。&lt;br&gt;&lt;/span&gt;" style="shape=step;perimeter=stepPerimeter;whiteSpace=wrap;html=1;fixedSize=1;size=10;direction=south;fillColor=#AE4132;strokeColor=none;rounded=0;shadow=1;glass=0;comic=0;" parent="1" vertex="1">
          <mxGeometry x="867.5" y="-28" width="50" height="50" as="geometry" />
        </mxCell>
        <mxCell id="lzSyuqlsFKo8IC3isV0i-67" value="&lt;font color=&quot;#10739e&quot;&gt;&lt;b&gt;。&lt;br&gt;。&lt;br&gt;。&lt;br&gt;&lt;/b&gt;&lt;/font&gt;" style="rounded=1;strokeColor=none;fillColor=#EEEEEE;align=center;arcSize=12;verticalAlign=top;whiteSpace=wrap;html=1;fontSize=12;shadow=1;glass=0;comic=0;" parent="1" vertex="1">
          <mxGeometry x="932.5" y="-25.5" width="100" height="49" as="geometry" />
        </mxCell>
        <mxCell id="lzSyuqlsFKo8IC3isV0i-68" value="&lt;b&gt;异常警报&lt;/b&gt;" style="aspect=fixed;html=1;perimeter=none;align=center;shadow=0;dashed=0;image;fontSize=12;image=img/lib/mscae/GlobeWarning.svg;rounded=0;glass=0;comic=0;fillColor=#FFFF99;gradientColor=#B5739D;" parent="1" vertex="1">
          <mxGeometry x="1177.5" y="-67" width="77" height="89" as="geometry" />
        </mxCell>
        <mxCell id="lzSyuqlsFKo8IC3isV0i-69" value="&lt;span style=&quot;font-size: 15px&quot;&gt;&lt;b&gt;压力值异常&lt;/b&gt;&lt;/span&gt;" style="shape=step;perimeter=stepPerimeter;whiteSpace=wrap;html=1;fixedSize=1;rounded=0;shadow=1;glass=0;comic=0;fillColor=#FFFFFF;gradientColor=#B5739D;" parent="1" vertex="1">
          <mxGeometry x="1049.5" y="-46.5" width="110" height="55" as="geometry" />
        </mxCell>
        <mxCell id="lzSyuqlsFKo8IC3isV0i-70" value="&lt;b&gt;数据库&lt;/b&gt;" style="shape=cylinder3;whiteSpace=wrap;html=1;boundedLbl=1;backgroundOutline=1;size=15;fillColor=#fff2cc;gradientColor=#ffd966;strokeColor=#d6b656;" parent="1" vertex="1">
          <mxGeometry x="658.5" y="-826" width="71.5" height="55" as="geometry" />
        </mxCell>
        <mxCell id="lzSyuqlsFKo8IC3isV0i-71" value="前置数据&lt;br&gt;处理服务" style="label;whiteSpace=wrap;html=1;image=img/clipart/Gear_128x128.png;fillColor=#fff2cc;gradientColor=#ffd966;strokeColor=#d6b656;" parent="1" vertex="1">
          <mxGeometry x="775.5" y="-819" width="110" height="40" as="geometry" />
        </mxCell>
        <mxCell id="lzSyuqlsFKo8IC3isV0i-75" value="" style="rounded=1;whiteSpace=wrap;html=1;fillColor=#fff2cc;gradientColor=#ffd966;strokeColor=#d6b656;" parent="1" vertex="1">
          <mxGeometry x="355" y="-965" width="115" height="45" as="geometry" />
        </mxCell>
        <mxCell id="lzSyuqlsFKo8IC3isV0i-76" value="" style="shape=image;html=1;verticalLabelPosition=bottom;verticalAlign=top;imageAspect=0;image=img/clipart/Gear_128x128.png" parent="1" vertex="1">
          <mxGeometry x="394" y="-965" width="40" height="30" as="geometry" />
        </mxCell>
        <mxCell id="lzSyuqlsFKo8IC3isV0i-77" value="&lt;span style=&quot;font-weight: 700&quot;&gt;数据分析服务&lt;/span&gt;" style="text;html=1;align=center;verticalAlign=middle;resizable=0;points=[];autosize=1;strokeColor=none;fillColor=none;" parent="1" vertex="1">
          <mxGeometry x="368" y="-939" width="90" height="20" as="geometry" />
        </mxCell>
      </root>
    </mxGraphModel>
  </diagram>
</mxfile>
